<svg xmlns="http://www.w3.org/2000/svg" viewBox="0 0 1023 977">
  <rect width="1023" height="977" rx="180" fill="#0a0a0a"/>
  <path d="M1022.52 373.339C1021.96 372.826 1021.43 372.662 1020.91 372.849C952.332 397.256 883.755 421.662 815.182 446.069L813.942 446.119L355.892 113.329C355.715 112.988 355.715 112.988 355.892 112.639L510.772 0.108917C511.247 0.0018574 511.37 0.0434618 511.472 0.118911C529.505 13.2856 698.222 135.869 1017.62 367.869C1020.3 369.816 1021.92 371.036 1022.47 371.529C1022.89 371.896 1022.91 372.499 1022.52 373.339Z" fill="rgba(255,255,255,0.85)"/>
  <path d="M612.422 504.079L415.752 576.149C372.365 546.522 329.145 517.002 286.092 487.589C259.552 469.462 232.819 451.019 205.892 432.259C179.252 413.692 152.602 395.125 125.942 376.559L54.1621 326.559L209.062 215.459C210.556 215.275 210.812 215.459L612.422 504.079Z" fill="rgba(255,255,255,0.85)"/>
  <path d="M54.1621 326.559L125.942 376.559L294.232 916.569L273.442 976.189L189.202 976.149C188.722 975.809L0.0420414 366.449C0.111531 365.671 0.392048 365.389L54.1621 326.559Z" fill="#6ee7b7"/>
  <path d="M612.421 504.079L459.441 975.729C459.078 976.163 458.791 976.209L273.441 976.189L294.231 916.569C335.255 802.876 375.511 690.306 415.771 577.739C416.151 576.136 415.751 576.149L612.421 504.079Z" fill="#6ee7b7"/>
  <path d="M960.793 563.233L827.393 973.609C826.938 974.142 826.583 974.199H642.673L813.942 446.119H815.183C869.944 426.578 924.709 407.088 979.475 387.597L1023 372L960.793 563.233Z" fill="#6ee7b7"/>
</svg>
